<svg height="30" viewBox="0 0 137 30" width="137" xmlns="http://www.w3.org/2000/svg" xmlns:xlink="http://www.w3.org/1999/xlink"><linearGradient id="a" x1="30.265%" x2="98.872%" y1="70.19%" y2="0%"><stop offset="0" stop-color="#004eea"/><stop offset="1" stop-color="#00b1fb"/></linearGradient><linearGradient id="b" x1="-15.92%" x2="133.864%" y1="117.442%" y2="-35.798%"><stop offset=".1721" stop-color="#0fd850"/><stop offset=".5164" stop-color="#3cf2ad"/></linearGradient><g fill="none"><path d="m5.93195876 0h17.79587634c3.2761303 0 5.9319587 2.6862915 5.9319587 6v18c0 3.3137085-2.6558284 6-5.9319587 6h-17.79587634c-3.27613036 0-5.93195876-2.6862915-5.93195876-6v-18c0-3.3137085 2.6558284-6 5.93195876-6z" fill="url(#a)"/><path d="m24.1797938 15.4428571-.4519587-1.9142857 1.2231134-1.2371428c.1553608-.1571429.1553608-.4171429 0-.5742857l-.8163506-.8257143c-.1553608-.1571429-.4124123-.1571429-.5677732 0l-.3728659.3771428-.4293609-1.82571426 1.6694227-1.70285714c.5282268-.54.9039175-1.14857143 1.1242474-1.82857143.2146805-.66285714.2344536-1.12-.0508453-1.48-.0141237-.01714286-.0282474-.03428571-.0451959-.04571428-.3587423-.29142858-.8078763-.26857143-1.4632165-.05142858-.6722887.22285715-1.2739588.60285715-1.807835 1.13714286l-1.6835464 1.68857143-1.8050103-.43428571.3728659-.37714286c.1553609-.15714286.1553609-.41714286 0-.57428572l-.8163505-.82571428c-.1553608-.15714286-.4124124-.15714286-.5677732 0l-1.2231134 1.23714286-1.8925773-.45714286c-1.37-.28285714-2.0564124.5-2.290866.74l-.711835.72 5.9686804 2.94571427s-1.0338557 1.1057143-1.4603918 1.5371429c-.4265361.4314285-.9123917 1.5371428-.9123917 1.5371428s-2.3586598-.5714285-2.3925567-.5771428c-.4039382-.0657143-.4576083.0542857-.6016701.1857143l-1.1609691 1.1371428 3.1439381 1.9142857 1.8925774 3.18 1.1242474-1.1742857c.1299381-.1457143.2514021-.2.1836082-.6085714-.0056494-.0342857-.5705979-2.42-.5705979-2.42s1.096-.4914286 1.5197113-.9228572c.4265361-.4314285 1.5197114-1.4771428 1.5197114-1.4771428l2.9123093 6.0371428.711835-.72c.2344536-.24 1.008433-.9314285.7287835-2.32z" fill="#fff"/><path d="m13.4175258 30h-7.76804126c-3.12012416 0-5.64948454-2.5583729-5.64948454-5.7142857v-7.8571429c5.20035052 2.8657143 10.0645567 3.3914286 12.5503299.8771429-2.4857732 2.5142857-1.9660206 7.4342857.8671959 12.6942857z" fill="url(#b)"/><g fill="#fff" transform="translate(37.004124 5.714286)"><path d="m5.48847423 3.68285714c1.32762886 0 2.43492783.47428572 3.31907216 1.42571429.88414433.94857143 1.32762891 2.18285714 1.32762891 3.70285714 0 1.51714283-.44630932 2.76571433-1.33610314 3.73714283-.88979381.9742857-1.99426804 1.46-3.31059793 1.46-.77680413 0-1.46039176-.1857143-2.04511341-.5542857-.58754639-.3685714-1.05362886-.8628571-1.39824742-1.48v6.6228572h-2.0451134v-14.75142861h2.0451134v1.77714285c.33614433-.58.79940206-1.04857143 1.3897732-1.40571428.59319587-.35428572 1.2767835-.53428572 2.05358763-.53428572zm1.66942268 7.59428576c.59884536-.6228572.89826804-1.44857147.89826804-2.4771429s-.29659794-1.84-.88696907-2.43142857c-.59319588-.59142857-1.2965567-.88857143-2.11573196-.88857143s-1.52536083.30285714-2.11573196.90857143c-.59319588.60571428-.88696907 1.42285714-.88696907 2.44857143 0 1.02857143.29659793 1.84857144.88696907 2.46000004.59319588.6114285 1.29373196.9171428 2.10725773.9171428.81070103-.0028571 1.51406186-.3142857 2.11290722-.9371428z"/><path d="m12.163 13.846v-13.429h2.045v13.429z"/><path d="m17.5642474 12.5485714c-.898268-.9742857-1.3445773-2.22-1.3445773-3.73714283 0-1.51714286.4463093-2.75142857 1.3361031-3.70285714.8897938-.94857143 1.9999175-1.42571429 3.3275464-1.42571429.7768041 0 1.4632165.17714286 2.0535876.53428572.5931959.35714285 1.0508041.82571428 1.3728248 1.40571428v-1.77714285h2.0620618v10.00000001h-2.0620618v-1.8685714c-.3361444.6171428-.7965774 1.1114285-1.381299 1.48-.5875464.3685714-1.2683093.5542857-2.0451134.5542857-1.3163299-.0028572-2.4236289-.4885715-3.3190722-1.4628572zm5.8556907-1.2514285c.5931959-.6114286.8869691-1.43142861.8869691-2.46000004s-.2965979-1.84571429-.8869691-2.44857143c-.5931958-.60571429-1.2937319-.90857143-2.1072577-.90857143s-1.5168866.29714286-2.1072577.88857143c-.5931959.59142857-.8869691 1.40285714-.8869691 2.43142857s.2965979 1.8542857.8869691 2.4771429c.5931959.6228571 1.2937319.9342857 2.1072577.9342857s1.5168866-.3057143 2.1072577-.9142857z"/><path d="m31.1088866 3.84571429v1.58c.6581649-1.16 1.7089691-1.74285715 3.1580619-1.74285715 1.1129484 0 2.0309896.37428572 2.7541237 1.12571429.723134.75142857 1.084701 1.79714286 1.084701 3.14v5.89714287h-2.028165v-5.58857144c0-.89428572-.2203298-1.58285715-.6638144-2.06-.4434845-.47714286-1.0479794-.71714286-1.8134845-.71714286-.7655052 0-1.3728248.24-1.8219588.71714286-.449134.47714285-.6722886 1.16571428-.6722886 2.06v5.58857144h-2.0451134v-10.00000001z"/><path d="m44.8682062 14.0085714c-1.4349691 0-2.6015876-.4714285-3.4998557-1.4142857-.898268-.9428571-1.3445773-2.1971428-1.3445773-3.75714284 0-1.56.4547835-2.80857143 1.3643505-3.74857143.909567-.93714286 2.0846598-1.40571429 3.5252784-1.40571429 1.4406185 0 2.6100618.45142857 3.5083299 1.35142857.898268.9 1.3445773 2.07714286 1.3445773 3.52857143 0 .35142857-.0254227.67714286-.0706186.98h-7.5703093c.0480207.83428576.3248454 1.49714286.833299 1.98571426.5084536.4885715 1.1440206.7342857 1.9095258.7342857 1.1129484 0 1.895402-.4657142 2.3501856-1.3971428h2.2061237c-.2994227.92-.8417732 1.6714286-1.6327011 2.26-.7881031.5914286-1.7626391.8828571-2.9236082.8828571zm1.9575464-7.8485714c-.5254021-.48857143-1.1666186-.73428571-1.9208248-.73428571s-1.3841237.24571428-1.8925773.73428571-.799402 1.14571429-.8700206 1.96857143h5.491299c-.0141237-.82285714-.2824743-1.47714286-.8078763-1.96857143z"/><path d="m55.7406392 3.93714286v.99714285h-2.279567v8.90857139h-1.2570103v-8.90571424h-1.3643506v-.99714286h1.3643506v-.96285714c0-1.04.2683505-1.79714286.8078762-2.26857143.5395258-.47142857 1.3982475-.70857143 2.5846392-.70857143v1.01714286c-.7881031 0-1.3417526.15142857-1.6609484.45428571-.3163712.30285714-.4745567.80571429-.4745567 1.50571429v.96285714h2.279567z"/><path d="m59.2207216 1.13428571c0 .26-.087567.48-.2598762.66285715-.1723093.18285714-.3898145.27142857-.646866.27142857-.2570516 0-.4745567-.09142857-.6553402-.27142857-.1807835-.18285715-.2683505-.40285715-.2683505-.66285715s.0903917-.48.2683505-.66285714c.1779587-.18285714.3982886-.27142857.6553402-.27142857.2570515 0 .4717319.09142857.646866.27142857.1723092.18285714.2598762.40285714.2598762.66285714zm-1.5592577 12.71142859v-9.90857144h1.2570103v9.90857144z"/><path d="m62.8618144 3.93714286v1.61428571c.658165-1.19714286 1.7400413-1.79714286 3.2484536-1.79714286 1.0875258 0 1.9970928.36 2.7258763 1.08s1.0931753 1.75714286 1.0931753 3.11142858v5.89714281h-1.2372371v-5.65999996c0-1.08857143-.2598763-1.91714285-.7796289-2.48571428s-1.2315876-.85142857-2.1355051-.85142857c-.9039176 0-1.6157526.28571428-2.1355052.85142857-.5197526.56857143-.7796289 1.39714285-.7796289 2.48571428v5.66285716h-1.2570103v-9.90857144z"/><path d="m73.2512165 12.5571429c-.898268-.98-1.3445773-2.2285715-1.3445773-3.74857147 0-1.51714286.4463093-2.74 1.3361031-3.66571429.8897938-.92571428 2.0253402-1.38857143 3.4009897-1.38857143.8841443 0 1.6609484.21714286 2.3332371.65428572.6694639.43428571 1.1666185.99714286 1.4886391 1.68857143v-5.68h1.2570104v13.42857144h-1.2570104v-2.1771429c-.3220206.6885715-.8191752 1.2542857-1.4886391 1.6971429-.6694639.4428571-1.4462681.6628571-2.3332371.6628571-1.3671753 0-2.4970722-.4914285-3.3925155-1.4714285zm6.1438144-.7342858c.7118351-.7428571 1.0677526-1.72 1.0677526-2.93142853 0-1.20857143-.3559175-2.18571428-1.0677526-2.93142857-.711835-.74285714-1.5705567-1.11714286-2.5733402-1.11714286s-1.8586804.35714286-2.564866 1.07142857c-.7061855.71428572-1.0592783 1.68-1.0592783 2.89428572 0 1.21428567.3559175 2.20857147 1.0677526 2.97714287.711835.7685714 1.5677319 1.1514286 2.5648659 1.1514286.9971341 0 1.853031-.3714286 2.564866-1.1142858z"/><path d="m88.4991753 14.0285714c-1.3982475 0-2.5366186-.4714285-3.409464-1.4142857-.8728453-.9428571-1.3106804-2.1857143-1.3106804-3.72857141 0-1.54285715.4463093-2.78285715 1.3361031-3.72.8897938-.93714286 2.0451134-1.40571429 3.463134-1.40571429 1.4180207 0 2.5450928.44285714 3.3812165 1.32571429.8361237.88285714 1.2570103 1.97714285 1.2570103 3.28571428 0 .35142857-.0254226.67714286-.0706185.98h-8.0731134c.0480206 1.13714283.3898144 2.03142853 1.0225567 2.68571433.6327423.6542857 1.4349691.98 2.4038557.98.7542061 0 1.3954226-.1742858 1.9292989-.5257143.5310516-.3514286.9010928-.8114286 1.1044743-1.38h1.3445773c-.3220206.8457143-.8502474 1.5457143-1.579031 2.0971428-.7287835.5428572-1.6637732.82-2.7993195.82zm3.4264123-5.67999997c0-1.08857143-.3248453-1.95714286-.9773608-2.60285714-.6525155-.64571429-1.4603917-.97142858-2.4208041-.97142858-.9632371 0-1.7654639.31714286-2.4038557.95142858-.6412165.63428571-.9886598 1.50857142-1.0508041 2.62285714z"/><path d="m96.5186186 3.93714286v1.63428571c.5395257-1.20857143 1.5479587-1.81428571 3.0309484-1.81428571v1.32571428h-.3587423c-.8615463 0-1.522536.23714286-1.982969.70857143s-.6892371 1.28285714-.6892371 2.43142857v5.62571426h-1.2570104v-9.91142854z"/></g></g></svg>